
nColumns=19
nRows=55
DataType=double
version=3
OpenSimVersion=4.4-2022-10-11-798caa840
endheader
time	ground_force_calcn_r_vx	ground_force_calcn_r_vy	ground_force_calcn_r_vz	ground_force_calcn_r_px	ground_force_calcn_r_py	ground_force_calcn_r_pz	ground_force_calcn_r_mx	ground_force_calcn_r_my	ground_force_calcn_r_mz	ground_force_calcn_l_vx	ground_force_calcn_l_vy	ground_force_calcn_l_vz	ground_force_calcn_l_px	ground_force_calcn_l_py	ground_force_calcn_l_pz	ground_force_calcn_l_mx	ground_force_calcn_l_my	ground_force_calcn_l_mz
0	-8.797230000000001	358.651	-51.832	-0.231118	0	-0.330947	0.0562764	-2.29431	0.331572	-4.69453	429.504	65.22620000000001	-0.245319	0	-0.913972	-0.0311409	2.84909	0.432674
0.01	-8.871880000000001	357.413	-51.5056	-0.231057	0	-0.331058	0.0558934	-2.25173	0.324488	-5.10362	430.13	65.496	-0.245218	0	-0.913955	-0.0334523	2.81933	0.4293
0.02	-8.97489	355.722	-51.0771	-0.230987	0	-0.331178	0.0556403	-2.20532	0.316655	-5.58999	430.801	65.8151	-0.24507	0	-0.913946	-0.0362139	2.79088	0.426374
0.03	-9.108610000000001	353.51	-50.5325	-0.230907	0	-0.331306	0.0555481	-2.15585	0.308168	-6.15535	431.495	66.1849	-0.244872	0	-0.913947	-0.0394386	2.76468	0.42406
0.04	-9.27469	350.709	-49.8568	-0.230815	0	-0.331445	0.0556412	-2.104	0.299103	-6.79952	432.191	66.6083	-0.244626	0	-0.913961	-0.0431229	2.74098	0.422433
0.05	-9.47414	347.251	-49.034	-0.230709	0	-0.331599	0.0559427	-2.05044	0.289535	-7.52016	432.876	67.09139999999999	-0.244338	0	-0.9139930000000001	-0.0472422	2.71936	0.421473
0.06	-9.70716	343.061	-48.0482	-0.230585	0	-0.331768	0.056476	-1.99592	0.279543	-8.31291	433.549	67.6427	-0.244021	0	-0.914043	-0.0517457	2.69873	0.421058
0.07000000000000001	-9.97296	338.063	-46.884	-0.230439	0	-0.331958	0.0572652	-1.94117	0.26921	-9.17113	434.223	68.27330000000001	-0.243694	0	-0.914111	-0.056546	2.67727	0.420949
0.08	-10.2704	332.186	-45.5273	-0.230269	0	-0.332169	0.0583382	-1.8869	0.258606	-10.0854	434.927	68.996	-0.243379	0	-0.9141899999999999	-0.061511	2.65264	0.420809
0.09	-10.5978	325.37	-43.967	-0.230069	0	-0.332407	0.059727	-1.83371	0.247788	-11.0422	435.704	69.8246	-0.24311	0	-0.914278	-0.06645769999999999	2.6223	0.420241
0.1	-10.9522	317.579	-42.1961	-0.229839	0	-0.332671	0.0614578	-1.78209	0.236782	-12.0217	436.613	70.7739	-0.242923	0	-0.914364	-0.07114429999999999	2.58387	0.418839
0.11	-11.3272	308.807	-40.2127	-0.229578	0	-0.332969	0.0635414	-1.7323	0.225579	-12.9953	437.722	71.85850000000001	-0.242866	0	-0.914436	-0.07527300000000001	2.53544	0.416229
0.12	-11.7116	299.086	-38.0225	-0.229294	0	-0.333304	0.0659619	-1.68451	0.21415	-13.9258	439.102	73.0908	-0.242987	0	-0.914485	-0.07851370000000001	2.47566	0.412087
0.13	-12.0872	288.491	-35.6397	-0.228996	0	-0.333679	0.0686563	-1.63865	0.202436	-14.7675	440.814	74.4781	-0.243344	0	-0.914492	-0.0805303	2.40385	0.406145
0.14	-12.4276	277.144	-33.0893	-0.228702	0	-0.334101	0.07149750000000001	-1.59444	0.190367	-15.467	442.899	76.0185	-0.243989	0	-0.914447	-0.0810211	2.32004	0.398208
0.15	-12.698	265.214	-30.4069	-0.228439	0	-0.334574	0.0742845	-1.55152	0.177883	-15.9671	445.362	77.6986	-0.244967	0	-0.914332	-0.0797715	2.22503	0.388182
0.16	-12.8593	252.911	-27.6384	-0.228241	0	-0.335104	0.0767467	-1.50943	0.164952	-16.2129	448.169	79.4924	-0.246321	0	-0.914135	-0.07669960000000001	2.12019	0.376061
0.17	-12.8726	240.477	-24.8384	-0.228147	0	-0.335692	0.078553	-1.46746	0.151572	-16.1585	451.234	81.36150000000001	-0.24807	0	-0.913843	-0.0718766	2.00719	0.361914
0.18	-12.7049	228.17	-22.0671	-0.228206	0	-0.336336	0.0793234	-1.42459	0.137777	-15.7715	454.429	83.25530000000001	-0.250224	0	-0.913449	-0.0655187	1.88781	0.345863
0.19	-12.3308	216.261	-19.3887	-0.228468	0	-0.337034	0.07865179999999999	-1.37941	0.12367	-15.0377	457.581	85.11109999999999	-0.252768	0	-0.912949	-0.0579623	1.76373	0.328059
0.2	-11.7358	205.031	-16.8675	-0.228991	0	-0.337776	0.0761416	-1.33024	0.109436	-13.9648	460.482	86.8557	-0.255673	0	-0.912341	-0.0496317	1.63658	0.308691
0.21	-10.9166	194.774	-14.5664	-0.22984	0	-0.338549	0.07147050000000001	-1.27518	0.0953652	-12.5851	462.896	88.4083	-0.258891	0	-0.911628	-0.0409957	1.50787	0.287988
0.22	-9.88134	185.786	-12.5447	-0.231082	0	-0.339335	0.0644747	-1.21224	0.0818531	-10.9547	464.566	89.6849	-0.262359	0	-0.910818	-0.0325187	1.37905	0.266227
0.23	-8.64527	178.357	-10.8575	-0.232781	0	-0.340107	0.0552399	-1.13963	0.0693753	-9.151070000000001	465.23	90.6015	-0.266005	0	-0.909919	-0.0246151	1.2514	0.243705
0.24	-7.22493	172.755	-9.55251	-0.234986	0	-0.340835	0.0441747	-1.05626	0.058406	-7.2681	464.639	91.0797	-0.269751	0	-0.908944	-0.0176152	1.12612	0.220744
0.25	-5.6311	169.206	-8.66732	-0.237722	0	-0.341483	0.0320209	-0.962181	0.0492862	-5.40619	462.57	91.0522	-0.273523	0	-0.907905	-0.0117368	1.00424	0.197674
0.26	-3.86436	167.872	-8.226710000000001	-0.240965	0	-0.342022	0.0197746	-0.859032	0.0420975	-3.66133	458.854	90.4688	-0.277254	0	-0.906814	-0.00707403	0.886549	0.174794
0.27	-1.91716	168.838	-8.24024	-0.244644	0	-0.342428	0.00851885	-0.750225	0.0366152	-2.11369	453.4	89.3026	-0.280889	0	-0.905683	-0.00360607	0.773524	0.152355
0.28	0.218004	172.102	-8.70007	-0.248636	0	-0.342694	-0.0008115140000000001	-0.640642	0.0323857	-0.816896	446.221	87.5553	-0.28439	0	-0.90452	-0.0012184	0.66554	0.130589
0.29	2.54028	177.576	-9.5807	-0.252789	0	-0.342833	-0.00766671	-0.535936	0.0289151	0.208532	437.435	85.2593	-0.287729	0	-0.9033369999999999	0.00026839	0.562998	0.109732
0.3	5.03558	185.101	-10.8424	-0.256941	0	-0.342866	-0.0120153	-0.441665	0.0258707	0.974562	427.265	82.4755	-0.290893	0	-0.9021400000000001	0.0010639	0.466433	0.09003609999999999
0.31	7.67439	194.458	-12.4375	-0.260955	0	-0.342823	-0.0143088	-0.362564	0.0231895	1.5211	416	79.2863	-0.293881	0	-0.900937	0.00137726	0.37666	0.0717884
0.32	10.4099	205.405	-14.317	-0.26472	0	-0.342728	-0.0153133	-0.302158	0.0210607	1.90882	403.949	75.78530000000001	-0.296688	0	-0.899741	0.0013934	0.294875	0.0553218
0.33	13.1803	217.703	-16.4338	-0.268159	0	-0.342606	-0.0158949	-0.262542	0.0198185	2.20931	391.4	72.0654	-0.299318	0	-0.8985649999999999	0.00125599	0.22251	0.0409689
0.34	15.916	231.13	-18.743	-0.271227	0	-0.342475	-0.0168262	-0.244347	0.0198149	2.49305	378.588	68.2105	-0.301767	0	-0.897419	0.00105964	0.160914	0.0289919
0.35	18.5485	245.489	-21.199	-0.273903	0	-0.342347	-0.0186496	-0.246826	0.0213145	2.81835	365.695	64.29130000000001	-0.30403	0	-0.896321	0.000855884	0.111055	0.0195241
0.36	21.0157	260.594	-23.7517	-0.276182	0	-0.342233	-0.0216173	-0.268054	0.0244317	3.22579	352.863	60.3661	-0.306093	0	-0.895288	0.000670575	0.0733531	0.0125489
0.37	23.2652	276.257	-26.3461	-0.27807	0	-0.342142	-0.0257099	-0.305286	0.0291145	3.73471	340.214	56.4855	-0.30794	0	-0.894332	0.0005194760000000001	0.0473218	0.007856800000000001
0.38	25.2563	292.277	-28.923	-0.279582	0	-0.34208	-0.0306929	-0.355191	0.0351488	4.34423	327.865	52.6941	-0.309544	0	-0.893468	0.000418537	0.0315875	0.00507672
0.39	26.9596	308.434	-31.4223	-0.280734	0	-0.342053	-0.0362012	-0.414164	0.0421937	5.0436	315.915	49.0275	-0.310878	0	-0.8927079999999999	0.000389736	0.0244118	0.00378853
0.4	28.3569	324.499	-33.7871	-0.281549	0	-0.342063	-0.0418304	-0.478681	0.0498407	5.82378	304.427	45.5104	-0.311921	0	-0.892058	0.000465745	0.024346	0.00363961
0.41	29.4372	340.257	-35.9713	-0.282045	0	-0.342107	-0.0472114	-0.545705	0.0576908	6.68055	293.425	42.16	-0.312656	0	-0.891526	0.000699436	0.0307209	0.00441404
0.42	30.1891	355.56	-37.9468	-0.282238	0	-0.342182	-0.0520329	-0.612832	0.0654038	7.61118	282.895	38.9898	-0.31308	0	-0.891112	0.00118144	0.0439121	0.00605216
0.43	30.5957	370.357	-39.7059	-0.282144	0	-0.34228	-0.0560277	-0.678207	0.0727105	8.611510000000001	272.798	36.0093	-0.313195	0	-0.890815	0.00205528	0.0651077	0.0085942
0.44	30.6313	384.702	-41.2597	-0.281774	0	-0.342392	-0.0589657	-0.740556	0.0794256	9.6716	263.081	33.2215	-0.313021	0	-0.89063	0.00352494	0.09588339999999999	0.012108
0.45	30.2599	398.729	-42.6314	-0.281143	0	-0.342512	-0.0606564	-0.7992590000000001	0.0854554	10.768	253.698	30.6248	-0.312578	0	-0.890547	0.00584294	0.137661	0.0166176
0.46	29.4427	412.612	-43.8519	-0.280267	0	-0.342629	-0.0609756	-0.854517	0.0908171	11.8618	244.625	28.2159	-0.311899	0	-0.890555	0.00928065	0.191394	0.022076
0.47	28.1536	426.518	-44.959	-0.279174	0	-0.342737	-0.059921	-0.907782	0.0956888	12.9042	235.872	25.9929	-0.311014	0	-0.890638	0.0140942	0.257624	0.0283899
0.48	26.3944	440.576	-45.9984	-0.277898	0	-0.342826	-0.0576292	-0.9619490000000001	0.100432	13.8463	227.481	23.9585	-0.309958	0	-0.890783	0.0204807	0.336477	0.035438
0.49	24.1993	454.877	-47.0188	-0.276482	0	-0.342889	-0.054312	-1.02091	0.105527	14.6453	219.529	22.1229	-0.308776	0	-0.890975	0.0285229	0.427551	0.0430863
0.5	21.6345	469.461	-48.061	-0.274973	0	-0.342919	-0.050181	-1.08891	0.111477	15.268	212.128	20.5031	-0.307516	0	-0.891202	0.0381272	0.529725	0.0512003
0.51	18.7925	484.315	-49.1507	-0.273417	0	-0.34291	-0.0454116	-1.17034	0.118772	15.6938	205.412	19.1192	-0.306233	0	-0.8914570000000001	0.0489685	0.640936	0.0596566
0.52	15.7836	499.345	-50.2982	-0.271855	0	-0.34286	-0.0401191	-1.26924	0.127849	15.9126	199.512	17.9909	-0.304979	0	-0.891732	0.0604621	0.758074	0.068359
0.53	12.7226	514.394	-51.5009	-0.270318	0	-0.342767	-0.034352	-1.38891	0.139057	15.9247	194.527	17.1321	-0.303801	0	-0.892026	0.0718097	0.877186	0.077254
0.54	9.70978	529.285	-52.7473	-0.268821	0	-0.34263	-0.0280957	-1.53151	0.152627	15.7469	190.495	16.5408	-0.302739	0	-0.892334	0.0821653	0.993978	0.0863075
